name rise31.4854peak64.571fall78.6902.mot
datacolumns 19
datarows 14
range 20.07993000000000 20.10159400000000
endheader
time	ground_force1_vx	ground_force1_vy	ground_force1_vz	ground_force1_px	ground_force1_py	ground_force1_pz	ground_force2_vx	ground_force2_vy	ground_force2_vz	ground_force2_px	ground_force2_py	ground_force2_pz	ground_torque1_x	ground_torque1_y	ground_torque1_z	ground_torque2_x	ground_torque2_y	ground_torque2_z	
20.07993000000000	-6.64479300000000	41.95833000000000	-12.37058700000000	0.28572800000000	0.00000000000000	0.07368000000000	-50.40048100000000	778.83024100000000	-55.87021100000000	0.11301900000000	0.00000000000000	-0.10336900000000	0.00000000000000	-8.09749900000000	0.00000000000000	0.00000000000000	-20.95578900000000	0.00000000000000	
20.08159100000000	-7.24825500000000	49.36448500000000	-13.93580000000000	0.29225500000000	0.00000000000000	0.07527800000000	-50.57255500000000	776.06336399999998	-55.48274000000000	0.11251800000000	0.00000000000000	-0.10330200000000	0.00000000000000	-9.23451500000000	0.00000000000000	0.00000000000000	-20.85060500000000	0.00000000000000	
20.08325500000000	-7.71341500000000	56.90994500000000	-15.36738300000000	0.29812700000000	0.00000000000000	0.07670600000000	-50.76164300000000	773.20295499999997	-55.07422100000000	0.11201800000000	0.00000000000000	-0.10323100000000	0.00000000000000	-10.30235300000000	0.00000000000000	0.00000000000000	-20.74801900000000	0.00000000000000	
20.08493000000000	-8.02124300000000	64.50008900000000	-16.63276300000000	0.30345900000000	0.00000000000000	0.07799500000000	-50.96832900000000	770.24811399999999	-54.64457500000000	0.11151900000000	0.00000000000000	-0.10315600000000	0.00000000000000	-11.27700700000000	0.00000000000000	0.00000000000000	-20.64820700000000	0.00000000000000	
20.08659400000000	-8.16030400000000	72.06170200000000	-17.71020500000000	0.30834300000000	0.00000000000000	0.07916600000000	-51.19310800000000	767.19782799999996	-54.19374500000000	0.11102200000000	0.00000000000000	-0.10307600000000	0.00000000000000	-12.14150100000000	0.00000000000000	0.00000000000000	-20.55132300000000	0.00000000000000	
20.08826300000000	-8.12664700000000	79.54539100000000	-18.58897700000000	0.31284800000000	0.00000000000000	0.08023700000000	-51.43638300000000	764.05097300000000	-53.72169500000000	0.11052700000000	0.00000000000000	-0.10299200000000	0.00000000000000	-12.88619000000000	0.00000000000000	0.00000000000000	-20.45750300000000	0.00000000000000	
20.08992600000000	-7.92308500000000	86.92563600000000	-19.26859400000000	0.31703300000000	0.00000000000000	0.08122300000000	-51.69845700000000	760.80631200000005	-53.22841200000000	0.11003400000000	0.00000000000000	-0.10290400000000	0.00000000000000	-13.50842800000000	0.00000000000000	0.00000000000000	-20.36685500000000	0.00000000000000	
20.09159300000000	-7.55806600000000	94.19886400000000	-19.75734100000000	0.32094400000000	0.00000000000000	0.08213400000000	-51.97953000000000	757.46249499999999	-52.71390500000000	0.10954400000000	0.00000000000000	-0.10281000000000	0.00000000000000	-14.01170700000000	0.00000000000000	0.00000000000000	-20.27946800000000	0.00000000000000	
20.09325600000000	-7.04426500000000	101.38004800000000	-20.07034800000000	0.32461800000000	0.00000000000000	0.08298100000000	-52.27969600000000	754.01806599999998	-52.17821000000000	0.10905900000000	0.00000000000000	-0.10271200000000	0.00000000000000	-14.40444800000000	0.00000000000000	0.00000000000000	-20.19540600000000	0.00000000000000	
20.09492300000000	-6.39708700000000	108.49836600000000	-20.22742400000000	0.32808700000000	0.00000000000000	0.08377200000000	-52.59893800000000	750.47145699999999	-51.62138600000000	0.10857800000000	0.00000000000000	-0.10260900000000	0.00000000000000	-14.69859000000000	0.00000000000000	0.00000000000000	-20.11470500000000	0.00000000000000	
20.09659200000000	-5.63320500000000	115.59246000000000	-20.25089400000000	0.33137700000000	0.00000000000000	0.08451300000000	-52.93712800000000	746.82099800000003	-51.04352000000000	0.10810300000000	0.00000000000000	-0.10250100000000	0.00000000000000	-14.90814000000000	0.00000000000000	0.00000000000000	-20.03737700000000	0.00000000000000	
20.09826100000000	-4.76925000000000	122.70572500000000	-20.16360700000000	0.33450900000000	0.00000000000000	0.08520900000000	-53.29402000000000	743.06491900000003	-50.44472900000000	0.10763500000000	0.00000000000000	-0.10238700000000	0.00000000000000	-15.04780000000000	0.00000000000000	0.00000000000000	-19.96340700000000	0.00000000000000	
20.09992600000000	-3.82073900000000	129.88202400000000	-19.98723500000000	0.33750100000000	0.00000000000000	0.08586600000000	-53.66925100000000	739.20135500000004	-49.82515400000000	0.10717400000000	0.00000000000000	-0.10226900000000	0.00000000000000	-15.13177300000000	0.00000000000000	0.00000000000000	-19.89275300000000	0.00000000000000	
20.10159400000000	-2.80126600000000	137.16207600000001	-19.74096800000000	0.34036800000000	0.00000000000000	0.08648700000000	-54.06233800000000	735.22835099999998	-49.18497100000000	0.10672100000000	0.00000000000000	-0.10214500000000	0.00000000000000	-15.17281700000000	0.00000000000000	0.00000000000000	-19.82534500000000	0.00000000000000	
